<svg width="114" height="72" viewBox="0 0 114 72" fill="none" xmlns="http://www.w3.org/2000/svg">
<path d="M0.896973 54.427L84.956 4.94501L113.102 66.618L0.896973 54.427Z" fill="url(#paint0_linear)"/>
<g style="mix-blend-mode:multiply" opacity="0.1">
<g style="mix-blend-mode:multiply" opacity="0.1">
<path d="M86.963 63.782L100.692 65.274C100.809 64.8389 100.885 64.3941 100.921 63.945L102.486 43.358L91.064 18.328C90.9333 18.566 90.8158 18.8111 90.712 19.062L90.707 19.074C90.4274 19.7713 90.2551 20.507 90.196 21.256L86.963 63.782Z" fill="black"/>
</g>
<g style="mix-blend-mode:multiply" opacity="0.1">
<path d="M82.653 6.30099L68.061 14.891L64.529 61.344L78.385 62.85L82.637 6.924V6.918C82.653 6.71 82.656 6.50399 82.653 6.30099Z" fill="black"/>
</g>
<g style="mix-blend-mode:multiply" opacity="0.1">
<path d="M42.096 58.903L55.952 60.409L58.929 21.253C58.947 21.023 58.951 20.797 58.947 20.573C58.947 20.5 58.938 20.428 58.935 20.356C58.935 20.326 58.93 20.296 58.928 20.266L44.383 28.828L42.096 58.903Z" fill="black"/>
</g>
<g style="mix-blend-mode:multiply" opacity="0.1">
<path d="M20.704 42.768L19.662 56.468L33.518 57.974L35.318 34.282C35.318 34.242 35.318 34.203 35.318 34.164L20.704 42.768Z" fill="black"/>
</g>
</g>
<path d="M93.095 14.76C91.2424 14.76 89.4658 15.4959 88.1558 16.8059C86.8459 18.1158 86.11 19.8925 86.11 21.745V64.015C86.11 65.8676 86.8459 67.6442 88.1558 68.9541C89.4658 70.2641 91.2424 71 93.095 71C94.9475 71 96.7242 70.2641 98.0341 68.9541C99.3441 67.6442 100.08 65.8676 100.08 64.015V21.746C100.08 20.8286 99.8995 19.9202 99.5486 19.0727C99.1976 18.2251 98.6831 17.455 98.0345 16.8062C97.3858 16.1575 96.6158 15.6429 95.7682 15.2918C94.9207 14.9407 94.0123 14.76 93.095 14.76Z" fill="url(#paint1_linear)"/>
<g style="mix-blend-mode:multiply" opacity="0.1">
<path d="M93.095 14.76V70.999C94.9475 70.999 96.7242 70.2631 98.0341 68.9532C99.3441 67.6432 100.08 65.8665 100.08 64.014V21.744C100.081 20.8266 99.901 19.9179 99.5499 19.0703C99.1987 18.2227 98.6836 17.4529 98.034 16.805C97.876 16.6477 97.7093 16.4973 97.534 16.354C97.2545 16.1269 96.9579 15.9216 96.647 15.74C95.5729 15.0993 94.3456 14.7607 93.095 14.76Z" fill="#3B286D"/>
</g>
<path d="M93.095 23.513C95.687 23.513 98.034 22.013 99.735 19.584C99.279 18.182 98.3911 16.9603 97.1983 16.0937C96.0056 15.2272 94.5692 14.7603 93.095 14.76C91.6206 14.7604 90.1841 15.2273 88.9913 16.0938C87.7984 16.9603 86.9103 18.182 86.454 19.584C87.1579 20.7297 88.1306 21.6863 89.2879 22.371C90.4451 23.0556 91.7519 23.4476 93.095 23.513Z" fill="url(#paint2_linear)"/>
<path d="M93.095 62.251C90.503 62.251 88.156 63.751 86.454 66.18C86.9103 67.582 87.7984 68.8037 88.9913 69.6702C90.1841 70.5367 91.6206 71.0036 93.095 71.004C94.5692 71.0037 96.0056 70.5368 97.1983 69.6703C98.3911 68.8038 99.279 67.582 99.735 66.18C98.033 63.751 95.686 62.251 93.095 62.251Z" fill="url(#paint3_linear)"/>
<path d="M70.476 0.569C69.5586 0.568869 68.6502 0.749448 67.8026 1.10042C66.9551 1.45139 66.1849 1.96587 65.5362 2.6145C64.8875 3.26313 64.3729 4.0332 64.0218 4.88072C63.6707 5.72825 63.49 6.63663 63.49 7.554V64.015C63.49 64.9324 63.6707 65.8408 64.0218 66.6883C64.3729 67.5358 64.8875 68.3059 65.5362 68.9545C66.1849 69.6031 66.9551 70.1176 67.8026 70.4686C68.6502 70.8195 69.5586 71.0001 70.476 71C72.3285 71 74.1052 70.2641 75.4151 68.9541C76.7251 67.6442 77.461 65.8675 77.461 64.015V7.554C77.461 5.70146 76.7251 3.92481 75.4151 2.61487C74.1052 1.30493 72.3285 0.569 70.476 0.569Z" fill="url(#paint4_linear)"/>
<g style="mix-blend-mode:multiply" opacity="0.1">
<path d="M70.475 71C71.3923 71 72.3006 70.8193 73.148 70.4683C73.9955 70.1173 74.7655 69.6028 75.4141 68.9542C76.0627 68.3055 76.5772 67.5355 76.9283 66.6881C77.2793 65.8406 77.46 64.9323 77.46 64.015V7.55401C77.4613 6.63635 77.2815 5.72746 76.9309 4.8794C76.5804 4.03135 76.0659 3.26081 75.4171 2.61193C74.7682 1.96305 73.9976 1.44859 73.1496 1.09803C72.3015 0.747467 71.3926 0.567691 70.475 0.569007V71Z" fill="black"/>
</g>
<path d="M70.479 9.32201C71.8217 9.2565 73.1282 8.86452 74.2852 8.18005C75.4423 7.49559 76.415 6.53927 77.119 5.394C76.6629 3.99208 75.7749 2.77042 74.5822 1.90392C73.3895 1.03741 71.9532 0.570495 70.479 0.570007C69.0046 0.570284 67.568 1.0371 66.3751 1.90363C65.1822 2.77015 64.2941 3.99192 63.838 5.394C64.542 6.5394 65.5149 7.49581 66.6721 8.18028C67.8293 8.86476 69.1361 9.25666 70.479 9.32201Z" fill="url(#paint5_linear)"/>
<path d="M70.479 62.25C67.887 62.25 65.54 63.75 63.838 66.179C64.294 67.5809 65.182 68.8026 66.3747 69.6691C67.5674 70.5356 69.0037 71.0025 70.478 71.003C71.9522 71.0025 73.3885 70.5356 74.5812 69.6691C75.7739 68.8026 76.6619 67.5809 77.118 66.179C75.4139 63.75 73.067 62.25 70.479 62.25Z" fill="url(#paint6_linear)"/>
<path d="M54.842 21.745C54.842 17.8873 51.7147 14.76 47.857 14.76C43.9993 14.76 40.872 17.8873 40.872 21.745V64.015C40.872 67.8727 43.9993 71 47.857 71C51.7147 71 54.842 67.8727 54.842 64.015V21.745Z" fill="url(#paint7_linear)"/>
<g style="mix-blend-mode:multiply" opacity="0.1">
<path d="M53.247 17.299C52.9624 16.9541 52.6456 16.637 52.301 16.352C52.128 16.21 51.949 16.076 51.763 15.952C50.6098 15.1722 49.2491 14.7566 47.857 14.759V70.999C48.7744 70.9991 49.6828 70.8186 50.5303 70.4676C51.3779 70.1166 52.1481 69.6021 52.7968 68.9535C53.4455 68.3049 53.9601 67.5348 54.3112 66.6873C54.6623 65.8398 54.843 64.9314 54.843 64.014V21.744C54.8458 20.1215 54.2812 18.5492 53.247 17.299Z" fill="black"/>
</g>
<path d="M47.857 23.513C49.2001 23.4476 50.5069 23.0556 51.6641 22.371C52.8214 21.6863 53.7941 20.7297 54.498 19.584C54.0417 18.182 53.1536 16.9603 51.9607 16.0938C50.7678 15.2273 49.3314 14.7604 47.857 14.76C46.3828 14.7605 44.9465 15.2274 43.7538 16.0939C42.5611 16.9604 41.6731 18.1821 41.217 19.584C42.919 22.012 45.265 23.513 47.857 23.513Z" fill="url(#paint8_linear)"/>
<path d="M47.857 62.251C45.265 62.251 42.919 63.751 41.217 66.18C41.6731 67.5819 42.5611 68.8036 43.7538 69.6701C44.9465 70.5366 46.3828 71.0035 47.857 71.004C49.3314 71.0036 50.7678 70.5367 51.9607 69.6702C53.1536 68.8037 54.0417 67.582 54.498 66.18C52.796 63.751 50.45 62.251 47.857 62.251Z" fill="url(#paint9_linear)"/>
<path d="M25.238 27.657C24.3207 27.657 23.4124 27.8377 22.565 28.1887C21.7175 28.5397 20.9475 29.0542 20.2989 29.7029C19.6502 30.3515 19.1357 31.1215 18.7847 31.9689C18.4337 32.8164 18.253 33.7247 18.253 34.642V64.014C18.253 64.9313 18.4337 65.8396 18.7847 66.687C19.1357 67.5345 19.6502 68.3045 20.2989 68.9531C20.9475 69.6017 21.7175 70.1163 22.565 70.4673C23.4124 70.8183 24.3207 70.999 25.238 70.999C27.0905 70.999 28.8672 70.2631 30.1771 68.9531C31.4871 67.6432 32.223 65.8665 32.223 64.014V34.642C32.223 32.7894 31.4871 31.0128 30.1771 29.7029C28.8672 28.3929 27.0905 27.657 25.238 27.657Z" fill="url(#paint10_linear)"/>
<g style="mix-blend-mode:multiply" opacity="0.1">
<path d="M32.079 33.234C31.8202 32.0031 31.2371 30.8638 30.39 29.934C30.2393 29.7687 30.081 29.6113 29.915 29.462C29.765 29.326 29.615 29.198 29.448 29.075C28.2376 28.1517 26.7573 27.6518 25.235 27.652V70.994C27.0875 70.994 28.8642 70.2581 30.1741 68.9481C31.4841 67.6382 32.22 65.8615 32.22 64.009V34.642C32.2207 34.1691 32.1734 33.6974 32.079 33.234Z" fill="black"/>
</g>
<path d="M25.238 36.41C27.83 36.41 30.177 34.91 31.879 32.481C31.4227 31.079 30.5346 29.8573 29.3417 28.9908C28.1488 28.1243 26.7124 27.6574 25.238 27.657C23.7635 27.6572 22.3268 28.124 21.1337 28.9905C19.9407 29.857 19.0523 31.0788 18.596 32.481C20.296 34.909 22.646 36.41 25.238 36.41Z" fill="url(#paint11_linear)"/>
<path d="M25.238 62.25C22.646 62.25 20.3 63.75 18.597 66.179C19.0533 67.581 19.9414 68.8027 21.1343 69.6692C22.3272 70.5357 23.7636 71.0026 25.238 71.003C26.7123 71.0026 28.1488 70.5357 29.3417 69.6692C30.5346 68.8027 31.4227 67.581 31.879 66.179C30.177 63.75 27.83 62.25 25.238 62.25Z" fill="url(#paint12_linear)"/>
<defs>
<linearGradient id="paint0_linear" x1="46.1156" y1="33.6846" x2="56.2712" y2="75.9169" gradientUnits="userSpaceOnUse">
<stop stop-color="white"/>
<stop offset="1" stop-color="#EBEBEB"/>
</linearGradient>
<linearGradient id="paint1_linear" x1="93.095" y1="17.6283" x2="93.095" y2="86.9722" gradientUnits="userSpaceOnUse">
<stop stop-color="#7581D4"/>
<stop offset="0.99" stop-color="#6247B0"/>
</linearGradient>
<linearGradient id="paint2_linear" x1="93.0945" y1="15.8016" x2="93.0945" y2="46.1483" gradientUnits="userSpaceOnUse">
<stop offset="0.01" stop-color="#808DE8"/>
<stop offset="1" stop-color="#6E6BC7"/>
</linearGradient>
<linearGradient id="paint3_linear" x1="93.0945" y1="77.0524" x2="93.0945" y2="62.82" gradientUnits="userSpaceOnUse">
<stop stop-color="#7581D4"/>
<stop offset="0.99" stop-color="#5B498F"/>
</linearGradient>
<linearGradient id="paint4_linear" x1="70.4755" y1="11.7675" x2="70.4755" y2="74.1694" gradientUnits="userSpaceOnUse">
<stop stop-color="#338BA8"/>
<stop offset="1" stop-color="#3360A8"/>
</linearGradient>
<linearGradient id="paint5_linear" x1="70.4785" y1="1.51522" x2="70.4785" y2="47.9271" gradientUnits="userSpaceOnUse">
<stop stop-color="#41AED4"/>
<stop offset="1" stop-color="#3360A8"/>
</linearGradient>
<linearGradient id="paint6_linear" x1="70.478" y1="80.0799" x2="70.478" y2="62.5389" gradientUnits="userSpaceOnUse">
<stop stop-color="#338BA8"/>
<stop offset="1" stop-color="#244478"/>
</linearGradient>
<linearGradient id="paint7_linear" x1="47.857" y1="24.377" x2="47.857" y2="70.3251" gradientUnits="userSpaceOnUse">
<stop stop-color="#5EC2CC"/>
<stop offset="1" stop-color="#338BA8"/>
</linearGradient>
<linearGradient id="paint8_linear" x1="47.8575" y1="16.782" x2="47.8575" y2="40.949" gradientUnits="userSpaceOnUse">
<stop stop-color="#6FDBE8"/>
<stop offset="1" stop-color="#338BA8"/>
</linearGradient>
<linearGradient id="paint9_linear" x1="47.8575" y1="80.6849" x2="47.8575" y2="64.378" gradientUnits="userSpaceOnUse">
<stop stop-color="#5EC2CC"/>
<stop offset="1" stop-color="#2A728A"/>
</linearGradient>
<linearGradient id="paint10_linear" x1="25.238" y1="30.3442" x2="25.238" y2="72.0392" gradientUnits="userSpaceOnUse">
<stop stop-color="#A8E9D9"/>
<stop offset="1" stop-color="#5EC2CC"/>
</linearGradient>
<linearGradient id="paint11_linear" x1="25.2375" y1="27.7095" x2="25.2375" y2="36.7338" gradientUnits="userSpaceOnUse">
<stop stop-color="#B5F7D6"/>
<stop offset="1" stop-color="#82D8D0"/>
</linearGradient>
<linearGradient id="paint12_linear" x1="25.238" y1="78.1367" x2="25.238" y2="63.5805" gradientUnits="userSpaceOnUse">
<stop stop-color="#8CDBB3"/>
<stop offset="1" stop-color="#449DA6"/>
</linearGradient>
</defs>
</svg>
